<svg xmlns="http://www.w3.org/2000/svg" fill="none" viewBox="0 0 66 46" height="46" width="66">
<path fill="white" d="M63.3941 4.65218C62.4145 4.579 61.6303 4.70856 61.1503 4.82732C61.3873 4.63178 61.612 4.44344 61.8209 4.2647C61.9589 4.19273 63.2964 3.47416 64.2173 1.96744C65.1884 0.376759 64.5459 -0.346607 64.0524 0.159629C63.559 0.664666 61.6743 3.54254 61.5815 3.85563C61.5766 3.87363 61.5729 3.88922 61.5705 3.90602C61.3128 4.10515 61.0502 4.29829 60.7839 4.48903C60.9292 3.48495 61.1381 1.07853 61.0795 0.506317C61.0086 -0.190657 60.0486 -0.0107156 59.8141 1.82949C59.6309 3.26902 60.0083 4.45904 60.1817 4.90889C59.5698 5.32756 58.9493 5.73423 58.3533 6.14569C58.0784 6.33523 57.8036 6.52357 57.5276 6.71191C57.7071 5.33596 57.9294 2.67762 57.8561 2.00943C57.7621 1.13731 56.5162 1.35924 56.2194 3.6601C56.0106 5.28437 56.3929 6.65553 56.6359 7.32131C55.7638 7.91512 54.8917 8.50773 54.0221 9.10394C54.1796 7.96311 54.3677 3.966 54.2322 3.08188C54.0807 2.0934 52.6748 2.4053 52.4513 5.03965C52.2522 7.38969 53.1084 9.2347 53.2953 9.60538C53.0901 9.74693 52.8849 9.88729 52.681 10.03C51.8907 10.5795 51.0736 11.0881 50.2369 11.5667C50.403 11.0089 50.458 5.36475 50.2344 4.22632C50.0109 3.08189 48.3876 3.51135 48.2545 6.59075C48.1226 9.67016 49.5065 11.9494 49.5065 11.9494C49.5065 11.9494 49.5187 11.9518 49.5382 11.9554C48.3327 12.6116 47.0893 13.209 45.8287 13.7752C45.8458 13.7416 45.8605 13.7057 45.8739 13.6649C46.0706 13.0579 46.1365 6.38562 45.8739 5.04325C45.6113 3.70088 43.7071 4.20472 43.552 7.81795C43.3969 11.4312 45.0202 14.1039 45.0202 14.1039C45.0202 14.1039 45.0373 14.1075 45.0654 14.1123C43.6106 14.7493 42.14 15.3527 40.6804 15.9633C40.8282 14.0307 40.8551 7.47007 40.6206 6.02453C40.358 4.40146 38.4538 5.01086 38.2987 9.37865C38.1814 12.698 39.0901 15.3599 39.5335 16.4468C39.2074 16.5859 38.8813 16.7251 38.5576 16.8666C37.1725 17.47 35.7886 18.0758 34.406 18.6876C34.6026 16.8414 34.649 8.63129 34.3583 6.87866C34.0444 4.99167 31.7689 5.69944 31.5833 10.7774C31.433 14.9149 32.6923 18.1742 33.1638 19.2407C31.6443 19.9184 30.1298 20.6058 28.6213 21.3076C28.8521 19.1939 28.9059 9.94127 28.5639 7.96311C28.1938 5.829 25.5152 6.62914 25.2978 12.3741C25.1182 17.1102 26.6377 20.8278 27.1776 21.9878C25.5299 22.7675 23.8895 23.5653 22.265 24.3906C22.1099 24.4698 21.956 24.5501 21.8033 24.6305C22.0293 21.1648 22.0574 11.3136 21.6787 9.08235C21.2378 6.48638 18.0437 7.45927 17.7848 14.4482C17.5882 19.7385 19.1003 23.9863 19.8466 25.7378C17.7591 26.9926 15.7694 28.4045 13.8652 29.9232C14.1303 25.2531 14.1523 13.3482 13.6857 10.5951C13.1275 7.30812 9.08336 8.54012 8.7548 17.3885C8.49585 24.3426 10.5698 29.874 11.47 31.923C9.84553 33.3385 8.28088 34.82 6.76509 36.3303C5.2493 37.8419 3.77992 39.3989 2.36063 40.9968C1.80244 41.6254 0.765445 42.5455 0.27321 43.4836C0.070453 43.8699 -0.0394754 44.2586 0.013046 44.6305C0.0863316 45.1427 0.501617 45.3814 0.979194 45.5086C3.03608 46.0592 4.42117 43.3469 5.52779 42.0945C6.81761 40.6357 8.2076 39.2622 9.60979 37.909C10.9937 36.5739 12.3995 35.2603 13.8249 33.9659C15.2235 35.4558 19.8038 37.3152 22.7218 38.1813C26.1565 39.2022 32.481 40.1187 33.9162 38.7104C35.3513 37.302 33.0563 36.7382 26.2481 34.2622C21.4588 32.5204 17.4782 32.3632 15.5398 32.4232C16.7906 31.3124 18.056 30.2159 19.3323 29.1363C20.1458 28.4477 20.9593 27.7087 21.8241 27.0585C21.8082 27.1569 21.8021 27.2817 21.8094 27.4352C21.8644 28.6696 26.3275 30.7797 29.0158 31.7142C31.703 32.6487 36.6888 33.6072 37.8809 32.5408C39.0718 31.4743 37.2727 30.9441 31.9619 28.732C26.6524 26.5187 22.519 26.9086 22.519 26.9086C22.519 26.9086 22.4006 26.7994 22.2613 26.7418C22.4128 26.6363 22.5655 26.5331 22.7206 26.4347C23.4571 25.9669 25.4383 24.7745 28.0741 23.2846C28.6738 24.3534 31.9509 25.9489 34.0041 26.7023C36.2613 27.5312 40.4606 28.4129 41.4841 27.53C42.5077 26.6459 40.9931 26.172 36.5398 24.2251C33.3751 22.8419 30.6941 22.5768 29.4067 22.5396C30.7893 21.7706 32.3051 20.9477 33.8869 20.1188C33.8869 20.1188 33.8869 20.12 33.8869 20.1212C33.8917 20.9861 36.9575 22.578 38.8129 23.3026C40.6682 24.0271 44.1297 24.8261 44.9921 24.1123C45.8544 23.3973 44.6098 22.9799 40.954 21.2932C37.8076 19.8417 35.2219 19.7613 34.5623 19.7673C36.4482 18.7896 38.4122 17.8131 40.3421 16.9206C40.3287 16.9842 40.3213 17.067 40.325 17.1749C40.3482 17.9283 43.0537 19.2515 44.6855 19.8441C46.3173 20.4367 49.3513 21.0605 50.0866 20.4199C50.8219 19.7793 49.7288 19.441 46.5079 18.0483C43.287 16.6555 40.7623 16.8582 40.7623 16.8582C40.7623 16.8582 40.7159 16.8138 40.6523 16.7779C42.311 16.0173 43.9392 15.3215 45.4672 14.7421C45.604 14.6905 45.742 14.6354 45.88 14.5802C46.2062 15.1476 47.9491 15.9873 49.0399 16.3832C50.243 16.8198 52.4782 17.2805 53.0205 16.8078C53.5628 16.3352 52.7567 16.0869 50.3834 15.06C48.864 14.4026 47.5558 14.2275 46.8096 14.1867C47.9088 13.6985 49.046 13.113 50.1868 12.4689C50.6167 12.8623 51.9615 13.3434 52.8214 13.5665C53.8413 13.8316 55.7162 14.0619 56.1388 13.6817C56.5602 13.3014 55.8799 13.155 53.8572 12.5084C52.6199 12.1126 51.567 12.0358 50.9355 12.037C51.9518 11.4408 52.9655 10.8038 53.9525 10.1512C54.3861 10.5339 55.7565 10.9777 56.6274 11.1769C57.6546 11.4108 59.5368 11.5859 59.946 11.1925C60.3552 10.799 59.67 10.6742 57.6289 10.0888C56.3257 9.71454 55.235 9.68215 54.6157 9.70854C55.5721 9.06195 56.4979 8.40576 57.37 7.76637C57.7975 8.01949 58.8846 8.22942 59.5759 8.3014C60.4248 8.38897 61.9528 8.34218 62.2398 7.9811C62.5269 7.62002 61.9638 7.46767 60.2636 7.19536C59.3817 7.0538 58.6354 7.11498 58.1224 7.20615C59.0201 6.53197 59.8495 5.88538 60.5799 5.29397C60.9353 5.54349 62.1165 5.67665 62.8408 5.68984C63.6628 5.70424 65.12 5.52669 65.3569 5.14282C65.5939 4.76014 65.0516 4.77574 63.3953 4.65098L63.3941 4.65218Z"></path>
</svg>
