<svg xmlns="http://www.w3.org/2000/svg" fill="none" viewBox="0 0 60 60" height="60" width="60">
<g clip-path="url(#clip0_145_6)">
<path fill="white" d="M14.7328 14.2033C14.906 14.3226 21.6073 17.4535 21.6073 17.4535C21.6145 17.4577 22.6482 17.9665 23.7307 17.6483C24.6168 17.3874 32.0508 14.7937 32.5242 14.4485C32.9422 14.1439 32.2225 13.8236 32.2225 13.8236C32.2225 13.8236 26.8928 11.4564 25.3855 10.7052C23.8781 9.95406 22.5393 10.5605 22.5393 10.5605C22.5393 10.5605 16.5406 12.9732 15.1526 13.6918C15.1026 13.718 14.4243 13.9921 14.7318 14.2032L14.7328 14.2033Z"></path>
<path fill="white" d="M13.6022 28.6026C13.6022 28.6026 17.7319 30.5735 19.5993 31.4796C19.8946 31.5965 20.1953 31.6989 20.5036 31.7766C20.6922 31.8247 21.0926 31.9741 21.2792 31.8763C21.3052 31.8622 21.3252 31.8407 21.3461 31.8203C21.4522 31.709 21.4263 31.5607 21.4282 31.4179L21.5769 20.6314C21.5789 20.4897 21.5808 20.3469 21.5828 20.2052C21.5855 20.0108 21.5819 19.8203 21.4859 19.6504C21.4476 19.5816 21.4071 19.5148 21.3635 19.4521C21.26 19.3017 21.1356 19.1759 20.9585 19.1103C20.8463 19.0684 20.7352 19.0234 20.6283 18.9702C20.6119 18.9617 14.1786 15.8293 14.1642 15.8229C13.9617 15.7249 13.7594 15.6911 13.5886 15.7715C13.5105 15.8087 13.4383 15.8688 13.3761 15.9579C13.2642 16.1188 13.2614 16.3174 13.234 16.5074C13.1986 16.749 13.1621 16.9916 13.1588 17.2357C13.1584 17.2657 13.0552 24.824 13.0279 26.7324C13.0033 28.4402 13.6032 28.6036 13.6032 28.6036L13.6022 28.6026Z"></path>
<path fill="white" d="M29.1517 17.5979C28.1712 17.9578 27.1896 18.3168 26.205 18.6684C25.6363 18.8716 25.0684 19.0873 24.4898 19.2583C24.308 19.3116 24.0933 19.4235 23.9213 19.5173C23.6878 19.6455 23.6556 19.8799 23.6523 20.124L23.5012 31.0844C23.4996 31.1992 23.4648 31.326 23.4984 31.4392C23.533 31.5545 23.6671 31.6557 23.7868 31.6077C23.8471 31.5837 23.8967 31.5161 23.9439 31.4702C24.012 31.4049 24.0781 31.3355 24.1453 31.2691C24.4715 30.9415 24.7988 30.615 25.1261 30.2874C25.6349 29.7781 26.1437 29.2689 26.6535 28.7597C27.2546 28.1586 27.8557 27.5575 28.4579 26.9564C29.0611 26.3533 29.6653 25.7512 30.2695 25.1481C30.7856 24.6338 31.3017 24.1195 31.8188 23.6062C32.1576 23.2705 32.4954 22.9338 32.8363 22.6002C32.8604 22.5767 32.8855 22.5522 32.9097 22.5287C34.188 21.2852 34.31 20.2389 34.31 20.2389L34.3561 16.8906C34.3588 16.6961 34.346 16.5014 34.3155 16.3096C34.2945 16.18 34.3055 16.0612 34.1887 15.9747C34.1211 15.9252 34.0355 15.9064 33.9528 15.9052C33.7303 15.9043 33.54 15.9751 33.3341 16.0519C33.0409 16.1606 32.7466 16.2704 32.4533 16.3791C31.3552 16.7861 30.256 17.193 29.1559 17.5969L29.1517 17.5979Z"></path>
<path fill="white" d="M51.2131 8.7869C45.5472 3.12103 38.0131 0 30 0C21.9869 0 14.4528 3.12103 8.7869 8.7869C3.12103 14.4528 0 21.9869 0 30C0 38.0131 3.12103 45.5472 8.7869 51.2131C14.4528 56.879 21.9869 60 30 60C38.0131 60 45.5472 56.879 51.2131 51.2131C56.879 45.5472 60 38.0131 60 30C60 21.9869 56.879 14.4528 51.2131 8.7869ZM11.7124 11.7124C16.5972 6.82759 23.0917 4.13793 30 4.13793C35.8614 4.13793 41.4238 6.07759 45.959 9.64862C47.1321 10.6583 46.3272 12.2472 46.3272 12.2472L12.1272 46.4472C11.2097 47.3866 10.139 46.529 10.0479 46.4534C6.22241 41.8314 4.13793 36.0766 4.13793 30C4.13793 23.0917 6.82759 16.5972 11.7124 11.7124ZM48.2876 48.2876C43.4028 53.1724 36.9083 55.8621 30 55.8621C24.6579 55.8621 19.5641 54.2524 15.271 51.2638C14.4155 50.6576 15.1014 49.3252 15.1014 49.3252L48.5503 15.8752C50.1817 14.2221 51.9145 16.2569 51.9269 16.2714C54.4893 20.3462 55.8621 25.0676 55.8621 30C55.8621 36.9083 53.1724 43.4028 48.2876 48.2876Z"></path>
<path fill="white" d="M36.0412 38.7848C36.0412 38.7848 34.1947 37.7638 32.7805 36.9755C31.3664 36.1872 30.8192 36.8203 30.8192 36.8203C30.8192 36.8203 28.505 39.1086 27.9174 39.721C27.3299 40.3334 27.4488 41.6689 27.4488 41.6689C27.4488 41.6689 27.4385 43.1969 27.4385 45.1562C27.4385 46.501 28.353 46.6882 28.353 46.6882C28.353 46.6882 33.7799 48.961 35.4309 49.6479C36.5688 50.1217 36.6123 49.1751 36.6123 49.1751C36.6123 49.1751 36.5688 41.2272 36.5688 39.8803C36.5688 39.0527 36.0412 38.7858 36.0412 38.7858V38.7848Z"></path>
<path fill="white" d="M45.6722 32.9483C46.4998 32.431 45.5429 32.0369 45.5429 32.0369C45.5429 32.0369 40.896 29.9876 39.6722 29.431C38.5343 28.9138 38.3274 29.3276 38.3274 29.3276L33.3495 34.2776C32.7112 34.9304 33.1643 35.1828 33.1643 35.1828C33.1643 35.1828 35.6264 36.5059 36.6722 37.0862C37.6033 37.6035 38.347 37.0304 38.347 37.0304C38.347 37.0304 44.466 33.7024 45.6722 32.9483Z"></path>
<path fill="white" d="M47.4094 35.3751C47.3825 34.1245 46.4297 34.6024 46.4297 34.6024C46.4297 34.6024 40.4132 38.1134 38.9484 38.8448C38.1208 39.2586 38.337 40.0862 38.337 40.0862V49.0862C38.337 50.1207 39.5173 49.8745 39.5173 49.8745C39.5173 49.8745 45.2949 47.4248 46.9139 46.5C47.638 46.0862 47.4984 44.5551 47.4984 44.5551C47.4984 44.5551 47.4353 36.6248 47.4084 35.3751H47.4094Z"></path>
</g>
<defs>
<clipPath id="clip0_145_6">
<rect fill="white" height="60" width="60"></rect>
</clipPath>
</defs>
</svg>
